<svg viewBox="0 0 150 300" xmlns="http://www.w3.org/2000/svg" fill="none">
  <defs>
    <style>
      .jasmine-element { stroke: currentColor; fill: none; stroke-width: 1; opacity: 0.4; }
      .jasmine-fill { fill: currentColor; opacity: 0.15; }
    </style>
  </defs>
  
  <!-- Main stem -->
  <path class="jasmine-element" d="M75 10 Q70 50 80 100 Q75 150 70 200 Q75 250 75 290" />
  
  <!-- Jasmine flowers -->
  <g transform="translate(60, 40)">
    <path class="jasmine-element" d="M0 0 L5 -8 L10 -3 L8 5 L0 8 L-8 5 L-10 -3 L-5 -8 Z" />
    <circle class="jasmine-fill" cx="0" cy="0" r="2" />
  </g>
  
  <g transform="translate(90, 70)">
    <path class="jasmine-element" d="M0 0 L4 -6 L8 -2 L6 4 L0 6 L-6 4 L-8 -2 L-4 -6 Z" />
    <circle class="jasmine-fill" cx="0" cy="0" r="1.5" />
  </g>
  
  <g transform="translate(50, 120)">
    <path class="jasmine-element" d="M0 0 L6 -9 L12 -4 L10 6 L0 9 L-10 6 L-12 -4 L-6 -9 Z" />
    <circle class="jasmine-fill" cx="0" cy="0" r="2.5" />
  </g>
  
  <g transform="translate(100, 160)">
    <path class="jasmine-element" d="M0 0 L4 -6 L8 -2 L6 4 L0 6 L-6 4 L-8 -2 L-4 -6 Z" />
    <circle class="jasmine-fill" cx="0" cy="0" r="1.5" />
  </g>
  
  <g transform="translate(45, 210)">
    <path class="jasmine-element" d="M0 0 L5 -8 L10 -3 L8 5 L0 8 L-8 5 L-10 -3 L-5 -8 Z" />
    <circle class="jasmine-fill" cx="0" cy="0" r="2" />
  </g>
  
  <!-- Small buds -->
  <circle class="jasmine-fill" cx="85" cy="50" r="1" />
  <circle class="jasmine-fill" cx="55" cy="90" r="1" />
  <circle class="jasmine-fill" cx="95" cy="130" r="1" />
  <circle class="jasmine-fill" cx="60" cy="180" r="1" />
  
  <!-- Leaves -->
  <path class="jasmine-element" d="M70 60 Q65 65 70 70 Q75 65 70 60" />
  <path class="jasmine-element" d="M85 110 Q80 115 85 120 Q90 115 85 110" />
  <path class="jasmine-element" d="M65 170 Q60 175 65 180 Q70 175 65 170" />
</svg>