<svg viewBox="0 0 200 200" xmlns="http://www.w3.org/2000/svg" fill="none">
  <defs>
    <style>
      .lotus-petal { stroke: currentColor; fill: none; stroke-width: 1.5; opacity: 0.6; }
      .lotus-center { stroke: currentColor; fill: currentColor; opacity: 0.3; }
    </style>
  </defs>
  <!-- Outer petals -->
  <path class="lotus-petal" d="M100 50 Q120 70 100 90 Q80 70 100 50 Z" />
  <path class="lotus-petal" d="M150 100 Q130 120 110 100 Q130 80 150 100 Z" />
  <path class="lotus-petal" d="M100 150 Q80 130 100 110 Q120 130 100 150 Z" />
  <path class="lotus-petal" d="M50 100 Q70 80 90 100 Q70 120 50 100 Z" />
  
  <!-- Inner petals -->
  <path class="lotus-petal" d="M100 70 Q110 80 100 90 Q90 80 100 70 Z" />
  <path class="lotus-petal" d="M130 100 Q120 110 110 100 Q120 90 130 100 Z" />
  <path class="lotus-petal" d="M100 130 Q90 120 100 110 Q110 120 100 130 Z" />
  <path class="lotus-petal" d="M70 100 Q80 90 90 100 Q80 110 70 100 Z" />
  
  <!-- Center -->
  <circle class="lotus-center" cx="100" cy="100" r="8" />
  
  <!-- Decorative swirls -->
  <path class="lotus-petal" d="M40 40 Q50 30 60 40 Q50 50 40 40" />
  <path class="lotus-petal" d="M160 40 Q150 30 140 40 Q150 50 160 40" />
  <path class="lotus-petal" d="M40 160 Q50 170 60 160 Q50 150 40 160" />
</svg>