<svg xmlns="http://www.w3.org/2000/svg" xmlns:xlink="http://www.w3.org/1999/xlink" width="500" zoomAndPan="magnify" viewBox="0 0 375 374.999991" height="500" preserveAspectRatio="xMidYMid meet" version="1.0"><defs><g/></defs><rect x="-37.5" width="450" fill="#ffffff" y="-37.499999" height="449.999989" fill-opacity="1"/><rect x="-37.5" width="450" fill="#ffffff" y="-37.499999" height="449.999989" fill-opacity="1"/><g fill="#7a1c1c" fill-opacity="1"><g transform="translate(3.294692, 256.934551)"><g><path d="M 47.6875 -5.78125 C 47.6875 -4.039062 47.109375 -2.640625 45.953125 -1.578125 C 44.796875 -0.523438 43 0 40.5625 0 L 11.078125 0 C 8.640625 0 6.84375 -0.492188 5.6875 -1.484375 C 4.53125 -2.484375 3.953125 -3.851562 3.953125 -5.59375 C 3.953125 -7.257812 4.414062 -8.554688 5.34375 -9.484375 C 6.28125 -10.421875 7.519531 -11.207031 9.0625 -11.84375 L 11.953125 -12.90625 C 14.066406 -13.800781 15.796875 -15.019531 17.140625 -16.5625 C 18.492188 -18.101562 19.300781 -20.320312 19.5625 -23.21875 L 26.875 -110.984375 C 27.132812 -114.316406 26.863281 -116.800781 26.0625 -118.4375 C 25.257812 -120.082031 23.796875 -121.257812 21.671875 -121.96875 L 17.53125 -123.21875 C 14.382812 -124.238281 12.8125 -126.257812 12.8125 -129.28125 C 12.8125 -131.019531 13.421875 -132.382812 14.640625 -133.375 C 15.859375 -134.375 17.65625 -134.875 20.03125 -134.875 L 52.21875 -134.875 C 55.613281 -134.875 58.351562 -134.164062 60.4375 -132.75 C 62.53125 -131.332031 64.378906 -128.503906 65.984375 -124.265625 L 93.453125 -55.296875 L 119.65625 -123.890625 C 121.195312 -128.066406 123.007812 -130.941406 125.09375 -132.515625 C 127.175781 -134.085938 130.050781 -134.875 133.71875 -134.875 L 166.28125 -134.875 C 168.71875 -134.875 170.515625 -134.375 171.671875 -133.375 C 172.828125 -132.382812 173.40625 -131.019531 173.40625 -129.28125 C 173.40625 -126.257812 171.894531 -124.269531 168.875 -123.3125 L 164.640625 -121.96875 C 162.453125 -121.257812 161.003906 -120.34375 160.296875 -119.21875 C 159.597656 -118.09375 159.34375 -116.3125 159.53125 -113.875 L 166.171875 -20.03125 C 166.304688 -17.71875 166.742188 -16.097656 167.484375 -15.171875 C 168.222656 -14.242188 169.488281 -13.488281 171.28125 -12.90625 L 175.421875 -11.5625 C 178.253906 -10.664062 179.671875 -8.769531 179.671875 -5.875 C 179.671875 -4.144531 179.09375 -2.734375 177.9375 -1.640625 C 176.78125 -0.546875 174.976562 0 172.53125 0 L 122.546875 0 C 120.035156 0 118.1875 -0.492188 117 -1.484375 C 115.8125 -2.484375 115.21875 -3.851562 115.21875 -5.59375 C 115.21875 -6.9375 115.550781 -8.117188 116.21875 -9.140625 C 116.894531 -10.171875 118.101562 -10.976562 119.84375 -11.5625 L 124.171875 -12.90625 C 126.296875 -13.613281 127.707031 -14.476562 128.40625 -15.5 C 129.113281 -16.53125 129.40625 -18.039062 129.28125 -20.03125 L 123.59375 -94.984375 L 92.671875 -13.6875 C 91.710938 -11.050781 90.734375 -9.039062 89.734375 -7.65625 C 88.742188 -6.28125 87.648438 -5.363281 86.453125 -4.90625 C 85.265625 -4.457031 83.9375 -4.234375 82.46875 -4.234375 C 80.863281 -4.234375 79.414062 -4.425781 78.125 -4.8125 C 76.84375 -5.195312 75.625 -6.113281 74.46875 -7.5625 C 73.3125 -9.007812 72.125 -11.238281 70.90625 -14.25 L 38.828125 -94.40625 L 32.953125 -23.125 C 32.691406 -20.226562 33.300781 -18.023438 34.78125 -16.515625 C 36.257812 -15.003906 38.1875 -13.675781 40.5625 -12.53125 L 44.21875 -10.890625 C 45.3125 -10.441406 46.160156 -9.796875 46.765625 -8.953125 C 47.378906 -8.117188 47.6875 -7.0625 47.6875 -5.78125 Z M 47.6875 -5.78125 "/></g></g></g><g fill="#e0b842" fill-opacity="1"><g transform="translate(167.075931, 256.934551)"><g><path d="M 47.6875 -5.78125 C 47.6875 -4.039062 47.109375 -2.640625 45.953125 -1.578125 C 44.796875 -0.523438 43 0 40.5625 0 L 11.078125 0 C 8.640625 0 6.84375 -0.492188 5.6875 -1.484375 C 4.53125 -2.484375 3.953125 -3.851562 3.953125 -5.59375 C 3.953125 -7.257812 4.414062 -8.554688 5.34375 -9.484375 C 6.28125 -10.421875 7.519531 -11.207031 9.0625 -11.84375 L 11.953125 -12.90625 C 14.066406 -13.800781 15.796875 -15.019531 17.140625 -16.5625 C 18.492188 -18.101562 19.300781 -20.320312 19.5625 -23.21875 L 26.875 -110.984375 C 27.132812 -114.316406 26.863281 -116.800781 26.0625 -118.4375 C 25.257812 -120.082031 23.796875 -121.257812 21.671875 -121.96875 L 17.53125 -123.21875 C 14.382812 -124.238281 12.8125 -126.257812 12.8125 -129.28125 C 12.8125 -131.019531 13.421875 -132.382812 14.640625 -133.375 C 15.859375 -134.375 17.65625 -134.875 20.03125 -134.875 L 52.21875 -134.875 C 55.613281 -134.875 58.351562 -134.164062 60.4375 -132.75 C 62.53125 -131.332031 64.378906 -128.503906 65.984375 -124.265625 L 93.453125 -55.296875 L 119.65625 -123.890625 C 121.195312 -128.066406 123.007812 -130.941406 125.09375 -132.515625 C 127.175781 -134.085938 130.050781 -134.875 133.71875 -134.875 L 166.28125 -134.875 C 168.71875 -134.875 170.515625 -134.375 171.671875 -133.375 C 172.828125 -132.382812 173.40625 -131.019531 173.40625 -129.28125 C 173.40625 -126.257812 171.894531 -124.269531 168.875 -123.3125 L 164.640625 -121.96875 C 162.453125 -121.257812 161.003906 -120.34375 160.296875 -119.21875 C 159.597656 -118.09375 159.34375 -116.3125 159.53125 -113.875 L 166.171875 -20.03125 C 166.304688 -17.71875 166.742188 -16.097656 167.484375 -15.171875 C 168.222656 -14.242188 169.488281 -13.488281 171.28125 -12.90625 L 175.421875 -11.5625 C 178.253906 -10.664062 179.671875 -8.769531 179.671875 -5.875 C 179.671875 -4.144531 179.09375 -2.734375 177.9375 -1.640625 C 176.78125 -0.546875 174.976562 0 172.53125 0 L 122.546875 0 C 120.035156 0 118.1875 -0.492188 117 -1.484375 C 115.8125 -2.484375 115.21875 -3.851562 115.21875 -5.59375 C 115.21875 -6.9375 115.550781 -8.117188 116.21875 -9.140625 C 116.894531 -10.171875 118.101562 -10.976562 119.84375 -11.5625 L 124.171875 -12.90625 C 126.296875 -13.613281 127.707031 -14.476562 128.40625 -15.5 C 129.113281 -16.53125 129.40625 -18.039062 129.28125 -20.03125 L 123.59375 -94.984375 L 92.671875 -13.6875 C 91.710938 -11.050781 90.734375 -9.039062 89.734375 -7.65625 C 88.742188 -6.28125 87.648438 -5.363281 86.453125 -4.90625 C 85.265625 -4.457031 83.9375 -4.234375 82.46875 -4.234375 C 80.863281 -4.234375 79.414062 -4.425781 78.125 -4.8125 C 76.84375 -5.195312 75.625 -6.113281 74.46875 -7.5625 C 73.3125 -9.007812 72.125 -11.238281 70.90625 -14.25 L 38.828125 -94.40625 L 32.953125 -23.125 C 32.691406 -20.226562 33.300781 -18.023438 34.78125 -16.515625 C 36.257812 -15.003906 38.1875 -13.675781 40.5625 -12.53125 L 44.21875 -10.890625 C 45.3125 -10.441406 46.160156 -9.796875 46.765625 -8.953125 C 47.378906 -8.117188 47.6875 -7.0625 47.6875 -5.78125 Z M 47.6875 -5.78125 "/></g></g></g><g fill="#7a1c1c" fill-opacity="1"><g transform="translate(330.85717, 256.934551)"><g/></g></g></svg>