<svg xmlns="http://www.w3.org/2000/svg" xmlns:xlink="http://www.w3.org/1999/xlink" width="500" zoomAndPan="magnify" viewBox="0 0 375 374.999991" height="500" preserveAspectRatio="xMidYMid meet" version="1.0"><defs><g/><clipPath id="e7d90cf10d"><path d="M 84 155 L 104 155 L 104 160 L 84 160 Z M 84 155 " clip-rule="nonzero"/></clipPath><clipPath id="04e0208541"><path d="M 86.65625 148.527344 L 118.878906 155.652344 L 116.289062 167.367188 L 84.066406 160.246094 Z M 86.65625 148.527344 " clip-rule="nonzero"/></clipPath><clipPath id="cc6ef4d2ab"><path d="M 86.65625 148.527344 L 118.878906 155.652344 L 116.289062 167.367188 L 84.066406 160.246094 Z M 86.65625 148.527344 " clip-rule="nonzero"/></clipPath><clipPath id="41bdc61e62"><path d="M 84 156 L 101 156 L 101 162 L 84 162 Z M 84 156 " clip-rule="nonzero"/></clipPath><clipPath id="208819abe7"><path d="M 86.65625 148.527344 L 118.878906 155.652344 L 116.289062 167.367188 L 84.066406 160.246094 Z M 86.65625 148.527344 " clip-rule="nonzero"/></clipPath><clipPath id="3f384a59ec"><path d="M 86.65625 148.527344 L 118.878906 155.652344 L 116.289062 167.367188 L 84.066406 160.246094 Z M 86.65625 148.527344 " clip-rule="nonzero"/></clipPath><clipPath id="78134beb52"><path d="M 93 156 L 119 156 L 119 161 L 93 161 Z M 93 156 " clip-rule="nonzero"/></clipPath><clipPath id="0a49ee0715"><path d="M 86.65625 148.527344 L 118.878906 155.652344 L 116.289062 167.367188 L 84.066406 160.246094 Z M 86.65625 148.527344 " clip-rule="nonzero"/></clipPath><clipPath id="9c93f8a2f2"><path d="M 86.65625 148.527344 L 118.878906 155.652344 L 116.289062 167.367188 L 84.066406 160.246094 Z M 86.65625 148.527344 " clip-rule="nonzero"/></clipPath></defs><g fill="#ffffff" fill-opacity="1"><g transform="translate(27.086137, 195.694967)"><g><path d="M 16.875 -2.046875 C 16.875 -1.429688 16.671875 -0.9375 16.265625 -0.5625 C 15.859375 -0.1875 15.222656 0 14.359375 0 L 3.921875 0 C 3.054688 0 2.414062 -0.175781 2 -0.53125 C 1.59375 -0.882812 1.390625 -1.367188 1.390625 -1.984375 C 1.390625 -2.566406 1.554688 -3.023438 1.890625 -3.359375 C 2.222656 -3.691406 2.660156 -3.96875 3.203125 -4.1875 L 4.234375 -4.5625 C 4.984375 -4.882812 5.59375 -5.316406 6.0625 -5.859375 C 6.539062 -6.410156 6.828125 -7.195312 6.921875 -8.21875 L 9.515625 -39.28125 C 9.609375 -40.457031 9.507812 -41.332031 9.21875 -41.90625 C 8.9375 -42.488281 8.421875 -42.90625 7.671875 -43.15625 L 6.203125 -43.609375 C 5.085938 -43.972656 4.53125 -44.6875 4.53125 -45.75 C 4.53125 -46.363281 4.742188 -46.847656 5.171875 -47.203125 C 5.609375 -47.554688 6.25 -47.734375 7.09375 -47.734375 L 18.484375 -47.734375 C 19.679688 -47.734375 20.648438 -47.484375 21.390625 -46.984375 C 22.128906 -46.484375 22.785156 -45.484375 23.359375 -43.984375 L 33.078125 -19.5625 L 42.34375 -43.84375 C 42.882812 -45.320312 43.523438 -46.335938 44.265625 -46.890625 C 45.003906 -47.453125 46.023438 -47.734375 47.328125 -47.734375 L 58.84375 -47.734375 C 59.707031 -47.734375 60.34375 -47.554688 60.75 -47.203125 C 61.164062 -46.847656 61.375 -46.363281 61.375 -45.75 C 61.375 -44.6875 60.835938 -43.984375 59.765625 -43.640625 L 58.265625 -43.15625 C 57.492188 -42.90625 56.984375 -42.582031 56.734375 -42.1875 C 56.484375 -41.789062 56.390625 -41.160156 56.453125 -40.296875 L 58.8125 -7.09375 C 58.851562 -6.269531 59.003906 -5.691406 59.265625 -5.359375 C 59.535156 -5.035156 59.988281 -4.769531 60.625 -4.5625 L 62.078125 -4.09375 C 63.078125 -3.769531 63.578125 -3.097656 63.578125 -2.078125 C 63.578125 -1.460938 63.375 -0.960938 62.96875 -0.578125 C 62.5625 -0.191406 61.925781 0 61.0625 0 L 43.375 0 C 42.476562 0 41.820312 -0.175781 41.40625 -0.53125 C 40.988281 -0.882812 40.78125 -1.367188 40.78125 -1.984375 C 40.78125 -2.453125 40.898438 -2.867188 41.140625 -3.234375 C 41.378906 -3.597656 41.800781 -3.882812 42.40625 -4.09375 L 43.953125 -4.5625 C 44.703125 -4.8125 45.203125 -5.117188 45.453125 -5.484375 C 45.703125 -5.847656 45.800781 -6.382812 45.75 -7.09375 L 43.75 -33.609375 L 32.796875 -4.84375 C 32.453125 -3.90625 32.101562 -3.191406 31.75 -2.703125 C 31.40625 -2.222656 31.019531 -1.898438 30.59375 -1.734375 C 30.175781 -1.578125 29.707031 -1.5 29.1875 -1.5 C 28.613281 -1.5 28.097656 -1.566406 27.640625 -1.703125 C 27.191406 -1.835938 26.757812 -2.160156 26.34375 -2.671875 C 25.9375 -3.179688 25.519531 -3.972656 25.09375 -5.046875 L 13.734375 -33.40625 L 11.65625 -8.1875 C 11.570312 -7.15625 11.789062 -6.375 12.3125 -5.84375 C 12.832031 -5.3125 13.515625 -4.84375 14.359375 -4.4375 L 15.65625 -3.859375 C 16.039062 -3.691406 16.335938 -3.460938 16.546875 -3.171875 C 16.765625 -2.878906 16.875 -2.503906 16.875 -2.046875 Z M 16.875 -2.046875 "/></g></g></g><g fill="#ffffff" fill-opacity="1"><g transform="translate(85.037526, 195.694967)"><g><path d="M 35.328125 -20.484375 C 35.328125 -19.078125 34.929688 -17.988281 34.140625 -17.21875 C 33.359375 -16.445312 32.226562 -16.0625 30.75 -16.0625 L 13.125 -16.0625 C 13.664062 -13.101562 14.863281 -10.898438 16.71875 -9.453125 C 18.570312 -8.015625 20.882812 -7.296875 23.65625 -7.296875 C 25.40625 -7.296875 26.96875 -7.578125 28.34375 -8.140625 C 29.71875 -8.710938 30.90625 -9.625 31.90625 -10.875 C 32.457031 -11.394531 32.878906 -11.742188 33.171875 -11.921875 C 33.460938 -12.109375 33.757812 -12.203125 34.0625 -12.203125 C 34.46875 -12.203125 34.757812 -12.007812 34.9375 -11.625 C 35.125 -11.238281 35.21875 -10.757812 35.21875 -10.1875 C 35.195312 -8.6875 34.796875 -7.269531 34.015625 -5.9375 C 33.242188 -4.613281 32.171875 -3.441406 30.796875 -2.421875 C 29.421875 -1.398438 27.796875 -0.59375 25.921875 0 C 24.046875 0.59375 21.972656 0.890625 19.703125 0.890625 C 17.160156 0.890625 14.8125 0.503906 12.65625 -0.265625 C 10.507812 -1.046875 8.640625 -2.15625 7.046875 -3.59375 C 5.460938 -5.039062 4.234375 -6.769531 3.359375 -8.78125 C 2.484375 -10.789062 2.046875 -13.023438 2.046875 -15.484375 C 2.046875 -19.066406 2.757812 -22.210938 4.1875 -24.921875 C 5.625 -27.628906 7.691406 -29.738281 10.390625 -31.25 C 13.097656 -32.757812 16.351562 -33.515625 20.15625 -33.515625 C 23.425781 -33.515625 26.191406 -32.957031 28.453125 -31.84375 C 30.710938 -30.726562 32.421875 -29.191406 33.578125 -27.234375 C 34.742188 -25.285156 35.328125 -23.035156 35.328125 -20.484375 Z M 12.78125 -19.875 C 12.78125 -19.757812 12.78125 -19.640625 12.78125 -19.515625 C 12.78125 -19.390625 12.78125 -19.269531 12.78125 -19.15625 L 21.546875 -19.15625 C 22.160156 -19.15625 22.613281 -19.285156 22.90625 -19.546875 C 23.207031 -19.804688 23.359375 -20.234375 23.359375 -20.828125 C 23.359375 -23.742188 22.921875 -25.894531 22.046875 -27.28125 C 21.171875 -28.664062 19.992188 -29.359375 18.515625 -29.359375 C 16.859375 -29.359375 15.488281 -28.550781 14.40625 -26.9375 C 13.320312 -25.320312 12.78125 -22.96875 12.78125 -19.875 Z M 12.78125 -19.875 "/></g></g></g><g fill="#ffffff" fill-opacity="1"><g transform="translate(115.035281, 195.694967)"><g><path d="M 17.859375 -48.453125 L 17.859375 -6.375 C 17.859375 -5.53125 17.941406 -4.929688 18.109375 -4.578125 C 18.285156 -4.234375 18.566406 -3.992188 18.953125 -3.859375 L 19.9375 -3.515625 C 20.875 -3.128906 21.34375 -2.535156 21.34375 -1.734375 C 21.34375 -0.578125 20.59375 0 19.09375 0 L 4.609375 0 C 3.828125 0 3.253906 -0.148438 2.890625 -0.453125 C 2.535156 -0.765625 2.359375 -1.191406 2.359375 -1.734375 C 2.359375 -2.535156 2.8125 -3.128906 3.71875 -3.515625 L 4.765625 -3.859375 C 5.160156 -4.015625 5.4375 -4.257812 5.59375 -4.59375 C 5.75 -4.9375 5.828125 -5.519531 5.828125 -6.34375 L 5.828125 -41.734375 C 5.828125 -42.390625 5.734375 -42.859375 5.546875 -43.140625 C 5.367188 -43.429688 5.078125 -43.617188 4.671875 -43.703125 L 3.40625 -43.875 C 2.5625 -44.101562 2.140625 -44.613281 2.140625 -45.40625 C 2.140625 -45.863281 2.269531 -46.234375 2.53125 -46.515625 C 2.800781 -46.804688 3.285156 -47.085938 3.984375 -47.359375 L 10.90625 -49.984375 C 11.976562 -50.390625 12.828125 -50.671875 13.453125 -50.828125 C 14.078125 -50.992188 14.613281 -51.078125 15.0625 -51.078125 C 16 -51.078125 16.695312 -50.832031 17.15625 -50.34375 C 17.625 -49.851562 17.859375 -49.222656 17.859375 -48.453125 Z M 17.859375 -48.453125 "/></g></g></g><g fill="#ffffff" fill-opacity="1"><g transform="translate(130.621287, 195.694967)"><g/></g></g><g clip-path="url(#e7d90cf10d)"><g clip-path="url(#04e0208541)"><g clip-path="url(#cc6ef4d2ab)"><path fill="#ffffff" d="M 84.855469 156.679688 C 84.855469 156.679688 90.703125 154.148438 94.699219 157.199219 C 98.691406 160.25 103.117188 158.179688 103.117188 158.179688 C 103.117188 158.179688 98.03125 161.0625 93.40625 158.054688 C 88.777344 155.046875 84.855469 156.679688 84.855469 156.679688 Z M 84.855469 156.679688 " fill-opacity="1" fill-rule="evenodd"/></g></g></g><g clip-path="url(#41bdc61e62)"><g clip-path="url(#208819abe7)"><g clip-path="url(#3f384a59ec)"><path fill="#ffffff" d="M 84.832031 156.828125 C 84.832031 156.828125 90.289062 155.699219 93.171875 159.019531 C 96.050781 162.339844 100.210938 161.347656 100.210938 161.347656 C 100.210938 161.347656 95.34375 162.917969 91.914062 159.523438 C 88.480469 156.128906 84.832031 156.828125 84.832031 156.828125 Z M 84.832031 156.828125 " fill-opacity="1" fill-rule="evenodd"/></g></g></g><g clip-path="url(#78134beb52)"><g clip-path="url(#0a49ee0715)"><g clip-path="url(#9c93f8a2f2)"><path fill="#ffffff" d="M 93.898438 159.121094 C 93.898438 159.121094 101.617188 162.941406 107.21875 159.105469 C 112.820312 155.269531 118.644531 158.371094 118.644531 158.371094 C 118.644531 158.371094 111.988281 154.128906 105.535156 157.863281 C 99.082031 161.597656 93.898438 159.121094 93.898438 159.121094 Z M 93.898438 159.121094 " fill-opacity="1" fill-rule="evenodd"/></g></g></g><g fill="#ffffff" fill-opacity="1"><g transform="translate(135.181826, 195.694967)"><g><path d="M 16.875 -2.046875 C 16.875 -1.429688 16.671875 -0.9375 16.265625 -0.5625 C 15.859375 -0.1875 15.222656 0 14.359375 0 L 3.921875 0 C 3.054688 0 2.414062 -0.175781 2 -0.53125 C 1.59375 -0.882812 1.390625 -1.367188 1.390625 -1.984375 C 1.390625 -2.566406 1.554688 -3.023438 1.890625 -3.359375 C 2.222656 -3.691406 2.660156 -3.96875 3.203125 -4.1875 L 4.234375 -4.5625 C 4.984375 -4.882812 5.59375 -5.316406 6.0625 -5.859375 C 6.539062 -6.410156 6.828125 -7.195312 6.921875 -8.21875 L 9.515625 -39.28125 C 9.609375 -40.457031 9.507812 -41.332031 9.21875 -41.90625 C 8.9375 -42.488281 8.421875 -42.90625 7.671875 -43.15625 L 6.203125 -43.609375 C 5.085938 -43.972656 4.53125 -44.6875 4.53125 -45.75 C 4.53125 -46.363281 4.742188 -46.847656 5.171875 -47.203125 C 5.609375 -47.554688 6.25 -47.734375 7.09375 -47.734375 L 18.484375 -47.734375 C 19.679688 -47.734375 20.648438 -47.484375 21.390625 -46.984375 C 22.128906 -46.484375 22.785156 -45.484375 23.359375 -43.984375 L 33.078125 -19.5625 L 42.34375 -43.84375 C 42.882812 -45.320312 43.523438 -46.335938 44.265625 -46.890625 C 45.003906 -47.453125 46.023438 -47.734375 47.328125 -47.734375 L 58.84375 -47.734375 C 59.707031 -47.734375 60.34375 -47.554688 60.75 -47.203125 C 61.164062 -46.847656 61.375 -46.363281 61.375 -45.75 C 61.375 -44.6875 60.835938 -43.984375 59.765625 -43.640625 L 58.265625 -43.15625 C 57.492188 -42.90625 56.984375 -42.582031 56.734375 -42.1875 C 56.484375 -41.789062 56.390625 -41.160156 56.453125 -40.296875 L 58.8125 -7.09375 C 58.851562 -6.269531 59.003906 -5.691406 59.265625 -5.359375 C 59.535156 -5.035156 59.988281 -4.769531 60.625 -4.5625 L 62.078125 -4.09375 C 63.078125 -3.769531 63.578125 -3.097656 63.578125 -2.078125 C 63.578125 -1.460938 63.375 -0.960938 62.96875 -0.578125 C 62.5625 -0.191406 61.925781 0 61.0625 0 L 43.375 0 C 42.476562 0 41.820312 -0.175781 41.40625 -0.53125 C 40.988281 -0.882812 40.78125 -1.367188 40.78125 -1.984375 C 40.78125 -2.453125 40.898438 -2.867188 41.140625 -3.234375 C 41.378906 -3.597656 41.800781 -3.882812 42.40625 -4.09375 L 43.953125 -4.5625 C 44.703125 -4.8125 45.203125 -5.117188 45.453125 -5.484375 C 45.703125 -5.847656 45.800781 -6.382812 45.75 -7.09375 L 43.75 -33.609375 L 32.796875 -4.84375 C 32.453125 -3.90625 32.101562 -3.191406 31.75 -2.703125 C 31.40625 -2.222656 31.019531 -1.898438 30.59375 -1.734375 C 30.175781 -1.578125 29.707031 -1.5 29.1875 -1.5 C 28.613281 -1.5 28.097656 -1.566406 27.640625 -1.703125 C 27.191406 -1.835938 26.757812 -2.160156 26.34375 -2.671875 C 25.9375 -3.179688 25.519531 -3.972656 25.09375 -5.046875 L 13.734375 -33.40625 L 11.65625 -8.1875 C 11.570312 -7.15625 11.789062 -6.375 12.3125 -5.84375 C 12.832031 -5.3125 13.515625 -4.84375 14.359375 -4.4375 L 15.65625 -3.859375 C 16.039062 -3.691406 16.335938 -3.460938 16.546875 -3.171875 C 16.765625 -2.878906 16.875 -2.503906 16.875 -2.046875 Z M 16.875 -2.046875 "/></g></g></g><g fill="#ffffff" fill-opacity="1"><g transform="translate(195.519915, 195.694967)"><g><path d="M 11.078125 -37.53125 C 8.867188 -37.53125 7.125 -38.054688 5.84375 -39.109375 C 4.5625 -40.171875 3.921875 -41.601562 3.921875 -43.40625 C 3.921875 -45.175781 4.5625 -46.582031 5.84375 -47.625 C 7.125 -48.675781 8.867188 -49.203125 11.078125 -49.203125 C 13.285156 -49.203125 15.035156 -48.675781 16.328125 -47.625 C 17.628906 -46.582031 18.28125 -45.175781 18.28125 -43.40625 C 18.28125 -41.601562 17.628906 -40.171875 16.328125 -39.109375 C 15.035156 -38.054688 13.285156 -37.53125 11.078125 -37.53125 Z M 17.859375 -30.78125 L 17.859375 -6.375 C 17.859375 -5.53125 17.941406 -4.929688 18.109375 -4.578125 C 18.285156 -4.234375 18.566406 -3.992188 18.953125 -3.859375 L 19.9375 -3.515625 C 20.875 -3.128906 21.34375 -2.535156 21.34375 -1.734375 C 21.34375 -0.578125 20.59375 0 19.09375 0 L 4.609375 0 C 3.828125 0 3.253906 -0.148438 2.890625 -0.453125 C 2.535156 -0.765625 2.359375 -1.191406 2.359375 -1.734375 C 2.359375 -2.535156 2.8125 -3.128906 3.71875 -3.515625 L 4.765625 -3.859375 C 5.160156 -4.015625 5.4375 -4.257812 5.59375 -4.59375 C 5.75 -4.9375 5.828125 -5.519531 5.828125 -6.34375 L 5.828125 -24.0625 C 5.828125 -24.726562 5.734375 -25.203125 5.546875 -25.484375 C 5.367188 -25.765625 5.078125 -25.953125 4.671875 -26.046875 L 3.40625 -26.21875 C 2.5625 -26.46875 2.140625 -26.976562 2.140625 -27.75 C 2.140625 -28.226562 2.269531 -28.601562 2.53125 -28.875 C 2.800781 -29.144531 3.285156 -29.421875 3.984375 -29.703125 L 10.90625 -32.328125 C 11.976562 -32.734375 12.828125 -33.019531 13.453125 -33.1875 C 14.078125 -33.363281 14.613281 -33.453125 15.0625 -33.453125 C 16 -33.453125 16.695312 -33.207031 17.15625 -32.71875 C 17.625 -32.226562 17.859375 -31.582031 17.859375 -30.78125 Z M 17.859375 -30.78125 "/></g></g></g><g fill="#ffffff" fill-opacity="1"><g transform="translate(213.416196, 195.694967)"><g><path d="M 17.859375 -48.453125 L 17.859375 -6.375 C 17.859375 -5.53125 17.941406 -4.929688 18.109375 -4.578125 C 18.285156 -4.234375 18.566406 -3.992188 18.953125 -3.859375 L 19.9375 -3.515625 C 20.875 -3.128906 21.34375 -2.535156 21.34375 -1.734375 C 21.34375 -0.578125 20.59375 0 19.09375 0 L 4.609375 0 C 3.828125 0 3.253906 -0.148438 2.890625 -0.453125 C 2.535156 -0.765625 2.359375 -1.191406 2.359375 -1.734375 C 2.359375 -2.535156 2.8125 -3.128906 3.71875 -3.515625 L 4.765625 -3.859375 C 5.160156 -4.015625 5.4375 -4.257812 5.59375 -4.59375 C 5.75 -4.9375 5.828125 -5.519531 5.828125 -6.34375 L 5.828125 -41.734375 C 5.828125 -42.390625 5.734375 -42.859375 5.546875 -43.140625 C 5.367188 -43.429688 5.078125 -43.617188 4.671875 -43.703125 L 3.40625 -43.875 C 2.5625 -44.101562 2.140625 -44.613281 2.140625 -45.40625 C 2.140625 -45.863281 2.269531 -46.234375 2.53125 -46.515625 C 2.800781 -46.804688 3.285156 -47.085938 3.984375 -47.359375 L 10.90625 -49.984375 C 11.976562 -50.390625 12.828125 -50.671875 13.453125 -50.828125 C 14.078125 -50.992188 14.613281 -51.078125 15.0625 -51.078125 C 16 -51.078125 16.695312 -50.832031 17.15625 -50.34375 C 17.625 -49.851562 17.859375 -49.222656 17.859375 -48.453125 Z M 17.859375 -48.453125 "/></g></g></g><g fill="#ffffff" fill-opacity="1"><g transform="translate(231.380661, 195.694967)"><g><path d="M 2.421875 -7.1875 C 2.421875 -9.1875 3.019531 -10.921875 4.21875 -12.390625 C 5.425781 -13.859375 7.171875 -14.992188 9.453125 -15.796875 C 11.742188 -16.609375 14.488281 -17.015625 17.6875 -17.015625 C 18.582031 -17.015625 19.40625 -16.972656 20.15625 -16.890625 C 20.90625 -16.816406 21.597656 -16.695312 22.234375 -16.53125 L 22.234375 -26.53125 C 22.234375 -27.75 21.90625 -28.710938 21.25 -29.421875 C 20.601562 -30.128906 19.710938 -30.484375 18.578125 -30.484375 C 17.597656 -30.484375 16.816406 -30.269531 16.234375 -29.84375 C 15.660156 -29.425781 15.375 -28.890625 15.375 -28.234375 L 15.375 -24.859375 C 15.375 -23.222656 14.816406 -21.953125 13.703125 -21.046875 C 12.585938 -20.148438 11.019531 -19.703125 9 -19.703125 C 7.226562 -19.703125 5.910156 -20.085938 5.046875 -20.859375 C 4.179688 -21.640625 3.75 -22.707031 3.75 -24.0625 C 3.75 -25.15625 4.101562 -26.257812 4.8125 -27.375 C 5.53125 -28.488281 6.597656 -29.503906 8.015625 -30.421875 C 9.441406 -31.347656 11.222656 -32.085938 13.359375 -32.640625 C 15.492188 -33.203125 17.972656 -33.484375 20.796875 -33.484375 C 25.296875 -33.484375 28.640625 -32.617188 30.828125 -30.890625 C 33.023438 -29.160156 34.125 -26.804688 34.125 -23.828125 L 34.125 -6.8125 C 34.125 -6.289062 34.242188 -5.875 34.484375 -5.5625 C 34.722656 -5.257812 35.082031 -5.109375 35.5625 -5.109375 C 36.007812 -5.109375 36.347656 -5.21875 36.578125 -5.4375 C 36.804688 -5.65625 37.023438 -5.878906 37.234375 -6.109375 C 37.367188 -6.265625 37.507812 -6.398438 37.65625 -6.515625 C 37.800781 -6.628906 37.988281 -6.6875 38.21875 -6.6875 C 38.5625 -6.6875 38.8125 -6.5625 38.96875 -6.3125 C 39.125 -6.0625 39.203125 -5.742188 39.203125 -5.359375 C 39.203125 -4.691406 39.019531 -3.992188 38.65625 -3.265625 C 38.289062 -2.546875 37.753906 -1.875 37.046875 -1.25 C 36.347656 -0.625 35.46875 -0.113281 34.40625 0.28125 C 33.351562 0.6875 32.132812 0.890625 30.75 0.890625 C 28.820312 0.890625 27.191406 0.523438 25.859375 -0.203125 C 24.523438 -0.929688 23.664062 -1.910156 23.28125 -3.140625 C 22.03125 -1.835938 20.472656 -0.835938 18.609375 -0.140625 C 16.742188 0.546875 14.789062 0.890625 12.75 0.890625 C 10.707031 0.890625 8.90625 0.546875 7.34375 -0.140625 C 5.789062 -0.835938 4.582031 -1.796875 3.71875 -3.015625 C 2.851562 -4.234375 2.421875 -5.625 2.421875 -7.1875 Z M 14.625 -9.28125 C 14.625 -7.6875 15.007812 -6.476562 15.78125 -5.65625 C 16.550781 -4.84375 17.550781 -4.4375 18.78125 -4.4375 C 19.394531 -4.4375 20 -4.53125 20.59375 -4.71875 C 21.1875 -4.914062 21.734375 -5.171875 22.234375 -5.484375 L 22.234375 -13.671875 C 21.796875 -13.828125 21.347656 -13.945312 20.890625 -14.03125 C 20.441406 -14.113281 19.957031 -14.15625 19.4375 -14.15625 C 17.9375 -14.15625 16.757812 -13.726562 15.90625 -12.875 C 15.050781 -12.019531 14.625 -10.820312 14.625 -9.28125 Z M 14.625 -9.28125 "/></g></g></g><g fill="#ffffff" fill-opacity="1"><g transform="translate(266.117311, 195.694967)"><g><path d="M 2.421875 -7.1875 C 2.421875 -9.1875 3.019531 -10.921875 4.21875 -12.390625 C 5.425781 -13.859375 7.171875 -14.992188 9.453125 -15.796875 C 11.742188 -16.609375 14.488281 -17.015625 17.6875 -17.015625 C 18.582031 -17.015625 19.40625 -16.972656 20.15625 -16.890625 C 20.90625 -16.816406 21.597656 -16.695312 22.234375 -16.53125 L 22.234375 -26.53125 C 22.234375 -27.75 21.90625 -28.710938 21.25 -29.421875 C 20.601562 -30.128906 19.710938 -30.484375 18.578125 -30.484375 C 17.597656 -30.484375 16.816406 -30.269531 16.234375 -29.84375 C 15.660156 -29.425781 15.375 -28.890625 15.375 -28.234375 L 15.375 -24.859375 C 15.375 -23.222656 14.816406 -21.953125 13.703125 -21.046875 C 12.585938 -20.148438 11.019531 -19.703125 9 -19.703125 C 7.226562 -19.703125 5.910156 -20.085938 5.046875 -20.859375 C 4.179688 -21.640625 3.75 -22.707031 3.75 -24.0625 C 3.75 -25.15625 4.101562 -26.257812 4.8125 -27.375 C 5.53125 -28.488281 6.597656 -29.503906 8.015625 -30.421875 C 9.441406 -31.347656 11.222656 -32.085938 13.359375 -32.640625 C 15.492188 -33.203125 17.972656 -33.484375 20.796875 -33.484375 C 25.296875 -33.484375 28.640625 -32.617188 30.828125 -30.890625 C 33.023438 -29.160156 34.125 -26.804688 34.125 -23.828125 L 34.125 -6.8125 C 34.125 -6.289062 34.242188 -5.875 34.484375 -5.5625 C 34.722656 -5.257812 35.082031 -5.109375 35.5625 -5.109375 C 36.007812 -5.109375 36.347656 -5.21875 36.578125 -5.4375 C 36.804688 -5.65625 37.023438 -5.878906 37.234375 -6.109375 C 37.367188 -6.265625 37.507812 -6.398438 37.65625 -6.515625 C 37.800781 -6.628906 37.988281 -6.6875 38.21875 -6.6875 C 38.5625 -6.6875 38.8125 -6.5625 38.96875 -6.3125 C 39.125 -6.0625 39.203125 -5.742188 39.203125 -5.359375 C 39.203125 -4.691406 39.019531 -3.992188 38.65625 -3.265625 C 38.289062 -2.546875 37.753906 -1.875 37.046875 -1.25 C 36.347656 -0.625 35.46875 -0.113281 34.40625 0.28125 C 33.351562 0.6875 32.132812 0.890625 30.75 0.890625 C 28.820312 0.890625 27.191406 0.523438 25.859375 -0.203125 C 24.523438 -0.929688 23.664062 -1.910156 23.28125 -3.140625 C 22.03125 -1.835938 20.472656 -0.835938 18.609375 -0.140625 C 16.742188 0.546875 14.789062 0.890625 12.75 0.890625 C 10.707031 0.890625 8.90625 0.546875 7.34375 -0.140625 C 5.789062 -0.835938 4.582031 -1.796875 3.71875 -3.015625 C 2.851562 -4.234375 2.421875 -5.625 2.421875 -7.1875 Z M 14.625 -9.28125 C 14.625 -7.6875 15.007812 -6.476562 15.78125 -5.65625 C 16.550781 -4.84375 17.550781 -4.4375 18.78125 -4.4375 C 19.394531 -4.4375 20 -4.53125 20.59375 -4.71875 C 21.1875 -4.914062 21.734375 -5.171875 22.234375 -5.484375 L 22.234375 -13.671875 C 21.796875 -13.828125 21.347656 -13.945312 20.890625 -14.03125 C 20.441406 -14.113281 19.957031 -14.15625 19.4375 -14.15625 C 17.9375 -14.15625 16.757812 -13.726562 15.90625 -12.875 C 15.050781 -12.019531 14.625 -10.820312 14.625 -9.28125 Z M 14.625 -9.28125 "/></g></g></g><g fill="#ffffff" fill-opacity="1"><g transform="translate(300.85396, 195.694967)"><g><path d="M 17.109375 -30.78125 L 17.109375 -28.671875 C 18.660156 -30.210938 20.332031 -31.40625 22.125 -32.25 C 23.925781 -33.09375 25.859375 -33.515625 27.921875 -33.515625 C 29.941406 -33.515625 31.816406 -33.117188 33.546875 -32.328125 C 35.273438 -31.546875 36.773438 -30.429688 38.046875 -28.984375 C 39.316406 -27.546875 40.304688 -25.835938 41.015625 -23.859375 C 41.722656 -21.890625 42.078125 -19.707031 42.078125 -17.3125 C 42.078125 -14.5625 41.648438 -12.066406 40.796875 -9.828125 C 39.941406 -7.597656 38.738281 -5.6875 37.1875 -4.09375 C 35.644531 -2.5 33.84375 -1.269531 31.78125 -0.40625 C 29.726562 0.457031 27.507812 0.890625 25.125 0.890625 C 22.3125 0.890625 19.820312 0.238281 17.65625 -1.0625 L 17.65625 9.515625 C 17.65625 10.359375 17.738281 10.953125 17.90625 11.296875 C 18.082031 11.648438 18.363281 11.894531 18.75 12.03125 L 20.015625 12.375 C 20.941406 12.738281 21.40625 13.332031 21.40625 14.15625 C 21.40625 15.3125 20.644531 15.890625 19.125 15.890625 L 4.390625 15.890625 C 3.617188 15.890625 3.050781 15.734375 2.6875 15.421875 C 2.320312 15.117188 2.140625 14.695312 2.140625 14.15625 C 2.140625 13.351562 2.597656 12.757812 3.515625 12.375 L 4.5625 12.03125 C 4.945312 11.894531 5.21875 11.648438 5.375 11.296875 C 5.539062 10.953125 5.625 10.367188 5.625 9.546875 L 5.625 -24.0625 C 5.625 -24.726562 5.53125 -25.203125 5.34375 -25.484375 C 5.164062 -25.765625 4.875 -25.953125 4.46875 -26.046875 L 3.203125 -26.21875 C 2.359375 -26.46875 1.9375 -26.976562 1.9375 -27.75 C 1.9375 -28.226562 2.066406 -28.59375 2.328125 -28.84375 C 2.597656 -29.09375 3.082031 -29.363281 3.78125 -29.65625 L 10.15625 -32.328125 C 11.15625 -32.734375 11.96875 -33.019531 12.59375 -33.1875 C 13.21875 -33.363281 13.789062 -33.453125 14.3125 -33.453125 C 15.25 -33.453125 15.945312 -33.207031 16.40625 -32.71875 C 16.875 -32.226562 17.109375 -31.582031 17.109375 -30.78125 Z M 22.90625 -27.515625 C 21 -27.515625 19.25 -26.6875 17.65625 -25.03125 L 17.65625 -6.109375 C 19.207031 -4.578125 20.9375 -3.8125 22.84375 -3.8125 C 24.164062 -3.8125 25.328125 -4.238281 26.328125 -5.09375 C 27.328125 -5.945312 28.113281 -7.269531 28.6875 -9.0625 C 29.269531 -10.863281 29.5625 -13.195312 29.5625 -16.0625 C 29.5625 -18.71875 29.273438 -20.890625 28.703125 -22.578125 C 28.140625 -24.273438 27.359375 -25.519531 26.359375 -26.3125 C 25.359375 -27.113281 24.207031 -27.515625 22.90625 -27.515625 Z M 22.90625 -27.515625 "/></g></g></g></svg>